<svg id="Capa_1" enable-background="new 0 0 512.333 512.333" height="512" viewBox="0 0 512.333 512.333" width="512" xmlns="http://www.w3.org/2000/svg"><g><g><g><circle cx="414.34" cy="97.827" fill="#eaf6ff" r="90.327"/><path d="m414.34 7.5c-5.111 0-10.121.431-15 1.247 42.746 7.146 75.327 44.305 75.327 89.08s-32.581 81.935-75.327 89.08c4.879.816 9.889 1.247 15 1.247 49.886 0 90.327-40.441 90.327-90.327s-40.441-90.327-90.327-90.327z" fill="#d8ecfe"/><path d="m414.34 112.704c-30.801 0-56.092 23.551-58.872 53.627 15.811 13.6 36.381 21.823 58.872 21.823s43.061-8.223 58.872-21.823c-2.781-30.076-28.071-53.627-58.872-53.627z" fill="#f28a97"/><path d="m399.382 186.899c4.867.812 9.86 1.255 14.957 1.255 22.492 0 43.061-8.223 58.872-21.823-.888-9.611-4.084-18.549-9.015-26.272-12.915 24.368-36.654 42.119-64.814 46.84z" fill="#ed7382"/><path d="m414.34 125.155c-17.229 0-31.197-13.967-31.197-31.197v-11.898c0-17.229 13.967-31.197 31.197-31.197 17.229 0 31.197 13.967 31.197 31.197v11.899c-.001 17.229-13.968 31.196-31.197 31.196z" fill="#ffcebf"/><path d="m414.34 50.863c-5.438 0-10.549 1.394-15 3.84 9.653 5.304 16.197 15.565 16.197 27.357v11.899c0 11.792-6.544 22.053-16.197 27.357 4.451 2.446 9.562 3.84 15 3.84 17.229 0 31.197-13.967 31.197-31.197v-11.899c-.001-17.229-13.968-31.197-31.197-31.197z" fill="#ffb09e"/></g><g><circle cx="414.34" cy="414.506" fill="#eaf6ff" r="90.327"/><path d="m414.34 324.179c-5.111 0-10.121.431-15 1.247 42.746 7.146 75.327 44.305 75.327 89.08s-32.581 81.935-75.327 89.08c4.879.816 9.889 1.247 15 1.247 49.886 0 90.327-40.441 90.327-90.327s-40.441-90.327-90.327-90.327z" fill="#d8ecfe"/><path d="m414.34 429.383c-30.801 0-56.092 23.551-58.872 53.627 15.811 13.6 36.381 21.823 58.872 21.823s43.061-8.223 58.872-21.823c-2.781-30.075-28.071-53.627-58.872-53.627z" fill="#b3dafe"/><path d="m399.382 503.578c4.867.812 9.86 1.255 14.957 1.255 22.492 0 43.061-8.223 58.872-21.823-.888-9.611-4.084-18.549-9.015-26.272-12.915 24.368-36.654 42.119-64.814 46.84z" fill="#8ac9fe"/><path d="m414.34 441.834c-17.229 0-31.197-13.967-31.197-31.197v-11.899c0-17.229 13.967-31.197 31.197-31.197 17.229 0 31.197 13.967 31.197 31.197v11.899c-.001 17.23-13.968 31.197-31.197 31.197z" fill="#ffcebf"/><path d="m414.34 367.543c-5.438 0-10.549 1.394-15 3.84 9.653 5.304 16.197 15.565 16.197 27.357v11.899c0 11.792-6.544 22.053-16.197 27.357 4.451 2.446 9.562 3.84 15 3.84 17.229 0 31.197-13.967 31.197-31.197v-11.899c-.001-17.23-13.968-31.197-31.197-31.197z" fill="#ffb09e"/></g><g><circle cx="97.994" cy="97.827" fill="#eaf6ff" r="90.327"/><path d="m97.994 7.5c-5.111 0-10.121.431-15 1.247 42.746 7.146 75.327 44.305 75.327 89.08s-32.581 81.935-75.327 89.08c4.879.816 9.889 1.247 15 1.247 49.886 0 90.327-40.441 90.327-90.327s-40.441-90.327-90.327-90.327z" fill="#d8ecfe"/><path d="m97.994 112.704c-30.801 0-56.092 23.551-58.872 53.627 15.811 13.6 36.381 21.823 58.872 21.823s43.061-8.223 58.872-21.823c-2.78-30.076-28.071-53.627-58.872-53.627z" fill="#fddf80"/><path d="m83.037 186.899c4.867.812 9.86 1.255 14.957 1.255 22.492 0 43.061-8.223 58.872-21.823-.888-9.611-4.084-18.549-9.015-26.272-12.916 24.368-36.654 42.119-64.814 46.84z" fill="#f9d070"/><path d="m97.994 125.155c-17.229 0-31.197-13.967-31.197-31.197v-11.898c0-17.229 13.967-31.197 31.197-31.197 17.229 0 31.197 13.967 31.197 31.197v11.899c-.001 17.229-13.968 31.196-31.197 31.196z" fill="#ffcebf"/><path d="m97.994 50.863c-5.438 0-10.549 1.394-15 3.84 9.653 5.304 16.197 15.565 16.197 27.357v11.899c0 11.792-6.544 22.053-16.197 27.357 4.451 2.446 9.562 3.84 15 3.84 17.229 0 31.197-13.967 31.197-31.197v-11.899c0-17.229-13.968-31.197-31.197-31.197z" fill="#ffb09e"/></g><g><circle cx="97.994" cy="414.506" fill="#eaf6ff" r="90.327"/><path d="m97.994 324.179c-5.111 0-10.121.431-15 1.247 42.746 7.146 75.327 44.305 75.327 89.08s-32.581 81.935-75.327 89.08c4.879.816 9.889 1.247 15 1.247 49.886 0 90.327-40.441 90.327-90.327s-40.441-90.327-90.327-90.327z" fill="#d8ecfe"/><path d="m97.994 429.383c-30.801 0-56.092 23.551-58.872 53.627 15.811 13.6 36.381 21.823 58.872 21.823s43.061-8.223 58.872-21.823c-2.78-30.075-28.071-53.627-58.872-53.627z" fill="#aee49e"/><path d="m83.037 503.578c4.867.812 9.86 1.255 14.957 1.255 22.492 0 43.061-8.223 58.872-21.823-.888-9.611-4.084-18.549-9.015-26.272-12.916 24.368-36.654 42.119-64.814 46.84z" fill="#8bd8a5"/><path d="m97.994 441.834c-17.229 0-31.197-13.967-31.197-31.197v-11.899c0-17.229 13.967-31.197 31.197-31.197 17.229 0 31.197 13.967 31.197 31.197v11.899c-.001 17.23-13.968 31.197-31.197 31.197z" fill="#ffcebf"/><path d="m97.994 367.543c-5.438 0-10.549 1.394-15 3.84 9.653 5.304 16.197 15.565 16.197 27.357v11.899c0 11.792-6.544 22.053-16.197 27.357 4.451 2.446 9.562 3.84 15 3.84 17.229 0 31.197-13.967 31.197-31.197v-11.899c0-17.23-13.968-31.197-31.197-31.197z" fill="#ffb09e"/></g><g><circle cx="256.167" cy="256" fill="#b3dafe" r="77.5"/><path d="m256.167 178.5c-5.133 0-10.146.512-15 1.464 35.621 6.988 62.5 38.367 62.5 76.036s-26.879 69.048-62.5 76.036c4.854.952 9.867 1.464 15 1.464 42.802 0 77.5-34.698 77.5-77.5s-34.698-77.5-77.5-77.5z" fill="#8ac9fe"/></g></g><path d="m414.34 195.654c53.736 0 97.827-44.304 97.827-97.827 0-53.942-43.885-97.827-97.827-97.827s-97.827 43.885-97.827 97.827c-.001 54.005 44.57 97.827 97.827 97.827zm0-15c-19.173 0-36.831-6.566-50.883-17.544 2.805-16.28 13.478-30.478 28.338-37.731 6.354 4.572 14.138 7.276 22.545 7.276s16.189-2.703 22.543-7.274c14.857 7.253 25.53 21.449 28.342 37.728-14.053 10.978-31.712 17.545-50.885 17.545zm-23.697-86.696v-11.898c0-13.066 10.63-23.697 23.696-23.697s23.696 10.63 23.696 23.697v11.898c0 13.066-10.63 23.697-23.696 23.697s-23.696-10.63-23.696-23.697zm23.697-78.958c45.671 0 82.827 37.156 82.827 82.827 0 20.301-7.354 38.909-19.521 53.329-5.14-15.559-15.951-28.919-30.221-37.146 3.56-5.851 5.611-12.717 5.611-20.052v-11.898c0-21.337-17.359-38.697-38.696-38.697s-38.696 17.359-38.696 38.697v11.898c0 7.334 2.051 14.199 5.61 20.05-14.273 8.227-25.084 21.588-30.22 37.148-12.167-14.421-19.521-33.028-19.521-53.329-.001-45.671 37.156-82.827 82.827-82.827zm15.17 302.85c-4.095-.642-7.928 2.164-8.564 6.256-.638 4.093 2.163 7.927 6.256 8.565 19.299 3.006 37.001 12.852 49.846 27.721 12.974 15.02 20.119 34.238 20.119 54.114 0 20.301-7.354 38.909-19.521 53.329-5.139-15.559-15.951-28.919-30.221-37.145 3.56-5.852 5.611-12.717 5.611-20.052v-11.898c0-21.337-17.359-38.697-38.696-38.697s-38.696 17.359-38.696 38.697v11.898c0 7.335 2.051 14.199 5.61 20.05-14.273 8.227-25.084 21.588-30.22 37.148-12.167-14.421-19.521-33.028-19.521-53.329 0-19.038 6.278-36.935 18.157-51.756 11.538-14.396 27.717-24.645 45.558-28.856 4.031-.952 6.527-4.991 5.575-9.022-.951-4.033-4.989-6.527-9.022-5.576-21.082 4.978-40.194 17.079-53.815 34.074-13.834 17.261-21.452 38.974-21.452 61.137 0 53.999 44.566 97.827 97.827 97.827 53.354 0 97.827-43.837 97.827-97.827 0-23.476-8.441-46.176-23.769-63.919-15.167-17.56-36.08-29.186-58.889-32.739zm-38.867 80.889c0-13.066 10.63-23.697 23.696-23.697s23.696 10.63 23.696 23.697v11.898c0 13.066-10.63 23.697-23.696 23.697s-23.696-10.63-23.696-23.697zm23.697 98.594c-19.173 0-36.831-6.566-50.883-17.544 2.805-16.279 13.478-30.477 28.338-37.731 6.354 4.572 14.137 7.276 22.545 7.276 8.406 0 16.189-2.703 22.542-7.274 14.857 7.253 25.531 21.45 28.343 37.728-14.053 10.978-31.712 17.545-50.885 17.545zm-316.346-301.679c53.357 0 97.827-43.837 97.827-97.827 0-53.942-43.885-97.827-97.827-97.827-21.645 0-42.157 6.927-59.319 20.031-3.292 2.514-3.923 7.22-1.409 10.513 2.514 3.291 7.218 3.923 10.513 1.409 14.523-11.091 31.888-16.953 50.215-16.953 45.671 0 82.827 37.156 82.827 82.827 0 20.301-7.354 38.908-19.521 53.329-5.136-15.56-15.947-28.921-30.22-37.148 3.559-5.851 5.61-12.715 5.61-20.05v-11.898c0-21.337-17.359-38.697-38.696-38.697s-38.696 17.36-38.696 38.697v11.898c0 7.335 2.052 14.201 5.611 20.052-14.27 8.227-25.081 21.587-30.221 37.146-12.167-14.421-19.521-33.028-19.521-53.329 0-14.778 3.938-29.281 11.387-41.94 2.101-3.57.91-8.167-2.66-10.268-3.568-2.101-8.167-.91-10.268 2.66-8.805 14.964-13.459 32.097-13.459 49.548 0 54.002 44.585 97.827 97.827 97.827zm-23.696-113.594c0-13.066 10.63-23.697 23.696-23.697s23.696 10.63 23.696 23.697v11.898c0 13.066-10.63 23.697-23.696 23.697s-23.696-10.63-23.696-23.697zm1.153 43.321c6.353 4.571 14.136 7.274 22.543 7.274 8.408 0 16.192-2.704 22.545-7.276 14.86 7.254 25.532 21.452 28.338 37.731-14.053 10.978-31.71 17.544-50.883 17.544-19.174 0-36.832-6.567-50.885-17.545 2.812-16.279 13.485-30.475 28.342-37.728zm331.386 153.119v17.5c0 4.142 3.357 7.5 7.5 7.5s7.5-3.358 7.5-7.5v-18c0-7.995-6.505-14.5-14.5-14.5h-66.52c.218-2.473.35-4.971.35-7.5s-.132-5.027-.35-7.5h66.52c7.995 0 14.5-6.505 14.5-14.5v-18c0-4.142-3.357-7.5-7.5-7.5s-7.5 3.358-7.5 7.5v17.5h-68.716c-9.891-35.981-42.875-62.5-81.954-62.5s-72.063 26.519-81.954 62.5h-68.716v-18c0-4.142-3.357-7.5-7.5-7.5s-7.5 3.358-7.5 7.5v18.5c0 7.995 6.505 14.5 14.5 14.5h66.52c-.218 2.473-.35 4.971-.35 7.5s.132 5.027.35 7.5h-66.52c-7.995 0-14.5 6.505-14.5 14.5v18.5c0 4.142 3.357 7.5 7.5 7.5s7.5-3.358 7.5-7.5v-18h68.716c9.891 35.981 42.875 62.5 81.954 62.5s72.063-26.519 81.954-62.5zm-150.67 47.5c-38.598 0-70-31.402-70-70s31.402-70 70-70 70 31.402 70 70-31.403 70-70 70zm28.48-77.5h-20.98v-20.98c0-4.142-3.357-7.5-7.5-7.5s-7.5 3.358-7.5 7.5v20.98h-20.98c-4.143 0-7.5 3.358-7.5 7.5s3.357 7.5 7.5 7.5h20.98v20.98c0 4.142 3.357 7.5 7.5 7.5s7.5-3.358 7.5-7.5v-20.98h20.98c4.143 0 7.5-3.358 7.5-7.5s-3.357-7.5-7.5-7.5zm-186.653 68.179c-53.942 0-97.827 43.885-97.827 97.827 0 53.349 44.621 97.827 97.827 97.827 53.727 0 97.827-44.262 97.827-97.827 0-53.942-43.885-97.827-97.827-97.827zm0 180.654c-19.174 0-36.832-6.567-50.885-17.546 2.812-16.278 13.486-30.474 28.343-37.728 6.354 4.571 14.136 7.274 22.542 7.274 8.408 0 16.191-2.704 22.545-7.276 14.861 7.253 25.533 21.452 28.338 37.731-14.053 10.979-31.71 17.545-50.883 17.545zm-23.696-86.695v-11.898c0-13.066 10.63-23.697 23.696-23.697s23.696 10.63 23.696 23.697v11.898c0 13.066-10.63 23.697-23.696 23.697s-23.696-10.631-23.696-23.697zm87.002 57.197c-5.136-15.56-15.947-28.921-30.22-37.148 3.559-5.851 5.61-12.716 5.61-20.05v-11.898c0-21.337-17.359-38.697-38.696-38.697s-38.696 17.359-38.696 38.697v11.898c0 7.336 2.052 14.201 5.611 20.052-14.27 8.227-25.082 21.587-30.221 37.145-12.167-14.421-19.521-33.028-19.521-53.329 0-45.671 37.156-82.827 82.827-82.827s82.827 37.156 82.827 82.827c0 20.302-7.354 38.91-19.521 53.33z"/></g></svg>